/* XPM */
static char * amogus_p_xpm[] = {
"64 64 170 2",
"  	c #337A64",
". 	c #000200",
"+ 	c #250104",
"@ 	c #760107",
"# 	c #870C06",
"$ 	c #900B0C",
"% 	c #8F080B",
"& 	c #970308",
"* 	c #980609",
"= 	c #260200",
"- 	c #6C0207",
"; 	c #BD0F11",
"> 	c #C4050D",
", 	c #BF120A",
"' 	c #070000",
") 	c #660603",
"! 	c #AD040F",
"~ 	c #340202",
"{ 	c #2E0204",
"] 	c #B10D0A",
"^ 	c #2A0201",
"/ 	c #8E060A",
"( 	c #B20F0B",
"_ 	c #A20207",
": 	c #860A05",
"< 	c #820409",
"[ 	c #840603",
"} 	c #100101",
"| 	c #3F0406",
"1 	c #6B0106",
"2 	c #000509",
"3 	c #405760",
"4 	c #577281",
"5 	c #618492",
"6 	c #6B8E9C",
"7 	c #749BAE",
"8 	c #789FB3",
"9 	c #7498A5",
"0 	c #587B89",
"a 	c #2C383E",
"b 	c #590306",
"c 	c #BB0910",
"d 	c #A50A0A",
"e 	c #5B7E8C",
"f 	c #91C0D3",
"g 	c #97C7D9",
"h 	c #B9D5E5",
"i 	c #D7E6EC",
"j 	c #DBEAF1",
"k 	c #D6E5EB",
"l 	c #C7E1EC",
"m 	c #A9CEDC",
"n 	c #608391",
"o 	c #630408",
"p 	c #2B424B",
"q 	c #89B9CB",
"r 	c #BAD6E7",
"s 	c #FCFFFB",
"t 	c #C8E2ED",
"u 	c #648795",
"v 	c #6D0308",
"w 	c #485F69",
"x 	c #7CA3B7",
"y 	c #AFD3E2",
"z 	c #FBFDFA",
"A 	c #F0F5F7",
"B 	c #506770",
"C 	c #78050A",
"D 	c #0C181D",
"E 	c #4C636C",
"F 	c #54737B",
"G 	c #92C1D4",
"H 	c #A6CEE2",
"I 	c #B1D5E4",
"J 	c #86ADC0",
"K 	c #B8030E",
"L 	c #212D32",
"M 	c #5A7D8B",
"N 	c #79A0B4",
"O 	c #080100",
"P 	c #5A0400",
"Q 	c #520500",
"R 	c #3B0100",
"S 	c #0D1214",
"T 	c #537582",
"U 	c #83B2C5",
"V 	c #8ABACC",
"W 	c #7BA2B6",
"X 	c #567886",
"Y 	c #400500",
"Z 	c #5B0501",
"` 	c #4D0103",
" .	c #99080A",
"..	c #577987",
"+.	c #7295A3",
"@.	c #7599A6",
"#.	c #678A98",
"$.	c #597C8A",
"%.	c #4E656E",
"&.	c #4A616B",
"*.	c #920D05",
"=.	c #530602",
"-.	c #1D292E",
";.	c #4B626B",
">.	c #2B3E42",
",.	c #A40709",
"'.	c #610105",
").	c #3F565F",
"!.	c #232F34",
"~.	c #A9110D",
"{.	c #540703",
"].	c #9C0D0C",
"^.	c #1F2B30",
"/.	c #3D545D",
"(.	c #455C66",
"_.	c #314750",
":.	c #19252A",
"<.	c #770308",
"[.	c #0D1818",
"}.	c #243035",
"|.	c #273338",
"1.	c #202C32",
"2.	c #172328",
"3.	c #020501",
"4.	c #6E050A",
"5.	c #5B0509",
"6.	c #79070B",
"7.	c #9D0F0D",
"8.	c #470300",
"9.	c #5D0704",
"0.	c #A80F0C",
"a.	c #600004",
"b.	c #9B0B0B",
"c.	c #620207",
"d.	c #9E110E",
"e.	c #500407",
"f.	c #360405",
"g.	c #6F070B",
"h.	c #880E07",
"i.	c #370406",
"j.	c #5E0905",
"k.	c #A70D0B",
"l.	c #410601",
"m.	c #4F0305",
"n.	c #97030F",
"o.	c #470406",
"p.	c #70080C",
"q.	c #7C0A0D",
"r.	c #C0140B",
"s.	c #4E0204",
"t.	c #480507",
"u.	c #BE1212",
"v.	c #B10D11",
"w.	c #8D0409",
"x.	c #A2020F",
"y.	c #720A05",
"z.	c #2F0300",
"A.	c #4A0602",
"B.	c #3D0303",
"C.	c #640509",
"D.	c #1D0100",
"E.	c #460304",
"F.	c #740D08",
"G.	c #710804",
"H.	c #690B06",
"I.	c #670804",
"J.	c #730C06",
"K.	c #490501",
"L.	c #220304",
"M.	c #190200",
"                                                                                                                                ",
"                                                                                                                                ",
"                                                                                                                                ",
"                                                                                                                                ",
"                                                                                                                                ",
"                                                                                                                                ",
"                                                                                                                                ",
"                                                                                                                                ",
"                                                                                                                                ",
"                                                    . . . . . . . . . . . . .                                                   ",
"                                                . . . . . . . . . . . . . . . . .                                               ",
"                                              . . . . + @ # $ % & & * % @ = . . . . .                                           ",
"                                              . . . - ; > > > > > > > > > , # ' . . . .                                         ",
"                                            . . . ) > > > > > > > > > > > > > ! ~ . . . .                                       ",
"                                            . . { ; > > > > > > > > > > > > > > ] ^ . . .                                       ",
"                                          . . . / > > > > > > > ( _ & : < [ [ < < - . . . .                                     ",
"                                          . . } ! > > > > > : ~ . . . . . . . . . . . . . . .                                   ",
"                                          . . | ( > > > > 1 . . . 2 3 4 5 6 7 8 8 9 0 a . . .                                   ",
"                                          . . b c > > > d . . . e f g g g h i j k i l m n . . .                                 ",
"                                        . . . o c > > > : . . p q g g g r s s s s s s s t u . . .                               ",
"                                        . . . v c > > > [ . . w x g g g y z s s s s s s A g B . .                               ",
"                                . . . . . . . C c > > > < . D E F G g g g H I y t j k l y g J . . .                             ",
"                            . . . . . . . . ^ C K > > > < . L E E M f g g g g g g g g g g g N . . .                             ",
"                            . . . O P Q . . R C ! > > > < . S E E E T U g g g g g g g V W X E . . .                             ",
"                          . . . Y c > > Z . ` C ! > > >  .. . 3 E E E E ..+.@.9 #.$.%.E E E &.. . .                             ",
"                          . . . *.> > > ^ . =.C ! > > > ( . . -.;.E E E E E E E E E E E E E >.. . .                             ",
"                          . . . ] > > > . . b C ,.> > > > '.. . >.;.E E E E E E E E E E ).!.. . .                               ",
"                          . . . ~.> > > . . {.C ].> > > > ] . . . ^./.;.E E E E E (._.:.. . . . .                               ",
"                          . . ' C < / <.. . {.C / > > > > > / . . . . [.}.|.1.2.3.. . . . . . .                                 ",
"                          . . { C C C 4.. . 5.C 6.> > > > > > $ ~ . . . . . . . . . ~ C 7.8.. .                                 ",
"                          . . ~ C C C C . . 9.C C ( > > > > > > > 0.: ) a.a.- : b.] > > > c.. .                                 ",
"                          . . ~ C C C C . . 9.C C d.> > > > > > > > > > > > > > > > > > > e.. .                                 ",
"                          . . f.C C C g.. . Z C C h.> > > > > > > > > > > > > > > > > > ( ~ . .                                 ",
"                          . . i.C C C v . . j.C C C ; > > > > > > > > > > > > > > > > > k.i.. .                                 ",
"                          . . l.C C C v . . 9.C C C ! > > > > > > > > > > > > > > > > > * e.. .                                 ",
"                          . . m.C C C v . . 5.C C C n.> > > > > > > > > > > > > > > > > < e.. .                                 ",
"                          . . o.C C C p.. . Z C C C q.r.> > > > > > > > > > > > > > > ; C s.. .                                 ",
"                          . . R C C C C . . 9.C C C C 7.> > > > > > > > > > > > > > > ].C t.. .                                 ",
"                          . . f.C C C C . . 9.C C C C C k.> > > > > > > > > > > > > ( C C R . .                                 ",
"                          . . f.C C C C O . 9.C C C C C C * u.> > > > > > > > > > v.q.C C { . .                                 ",
"                          . . { C C C C } . 5.C C C C C C C C w.].~.! v.c c v.x.< C C C C . . .                                 ",
"                          . . . y.C C C z.. b C C C C C C C C C C C C C C C C C C C C C g.. . .                                 ",
"                            . . A.C C C f.. m.C C C C C C C C C C C C C C C C C C C C C j.. . .                                 ",
"                            . . . B.C.) D.. s.C C C C C C C C C C C C C C C C C C C C C o.. . .                                 ",
"                            . . . . . . . . E.C C C C C C C F.^ . ' ~ Y s.=.e.s.A.G.C C D.. .                                   ",
"                                . . . . . . f.C C C C C C C ) . . . . . . . . R 4.C C g.. . .                                   ",
"                                      . . . D.C C C C C C C 9.. . . . . . } H.C C C C I.. . .                                   ",
"                                        . . . J.C C C C C C 9.. . .   . . { C C C C C 9.. . .                                   ",
"                                        . . . v C C C C C C 9.. . .   . . i.C C C C C 9.. . .                                   ",
"                                        . . . I.C C C C C C 9.. . .   . . ~ C C C C C C.. . .                                   ",
"                                        . . . 9.C C C C C C {.. .     . . O p.C C C C b . .                                     ",
"                                          . . K.C C C C C C f.. .       . . D.B.| | ~ . . .                                     ",
"                                          . . ' I.C C C G.K.. . .       . . . . . . . . .                                       ",
"                                          . . . . O L.M.. . . . .           . . . . .                                           ",
"                                            . . . . . . . . . .                                                                 ",
"                                                . . . . . .                                                                     ",
"                                                                                                                                ",
"                                                                                                                                ",
"                                                                                                                                ",
"                                                                                                                                ",
"                                                                                                                                ",
"                                                                                                                                ",
"                                                                                                                                ",
"                                                                                                                                "};
