/* XPM */
static char * amogus_te_xpm[] = {
"64 64 15 1",
" 	c #327A65",
".	c #000300",
"+	c #C3C7CA",
"@	c #240200",
"#	c #780509",
"$	c #92090A",
"%	c #ADB1B4",
"&	c #D6DBDD",
"*	c #C4090E",
"=	c #5E0604",
"-	c #3E0304",
";	c #4B646D",
">	c #7395A2",
",	c #233136",
"'	c #9CC9DB",
"                                                                ",
"                                                                ",
"                                                                ",
"                                                                ",
"                                                                ",
"                                                                ",
"                                                                ",
"                                                                ",
"                                                                ",
"                          .............                         ",
"                        .................                       ",
"          +++++++++++++....@#$$$$$$$#@.....+++++++++++          ",
"       %+&&&&&&&&&&&&&&...#***********$.....&&&&&&&&&&&+%       ",
"      +&&&&&&&&&&&&&&&...=**************-....&&&&&&&&&&&&+      ",
"     +&&&&&&&&&&&&&&&&..@****************@...&&&&&&&&&&&&&+     ",
"    +++&&&&&&&&&&&&&&...$********$$$#$$###....&&&&&&&&&&&+++    ",
"    &%+&&&&&&&&&&&&&&...******$-...............&&&&&&&&&&+%&    ",
"   +&&&&&&&&++%%%%%%%..-*****#....;;>>>>>>;,...%%%+&&&&&&&&&+   ",
"   &&&&&&&+%%%%%%%%%%..=****$...>'''''&&&&&'>...%%%%%+&&&&&&&   ",
"  %&&&&&+%%%%%%%%%%%...=****$..,'''''&&&&&&&&>...%%%%%%+&&&&&%  ",
"  %&&&&+++++++++++++...#****$..;>''''&&&&&&&&';..++++++++&&&&%  ",
"  %&&&&&&&&&&&&&.......#****#..;;'''''''&&&&''>...&&&&&&&&&&&%  ",
"  %&&&&&&&&&&+........@#****#.,;;>''''''''''''>...+&&&&&&&&&&%  ",
"  %&&&&&&&&+%%....==..-#****#..;;;;'''''''''>;;...%%+&&&&&&&&%  ",
"  %&&&&&++%%%...-***=.=#****$..;;;;;;>>>>;;;;;;...%%%%++&&&&&%  ",
"  %&&&&++++++...$***@.=#*****..,;;;;;;;;;;;;;;,...+++++++&&&&%  ",
"  %&&&&&&&&&&...****..=#$****=..,;;;;;;;;;;;;,...&&&&&&&&&&&&%  ",
"  %&&&&&&&&&&...$***..=#$*****...,;;;;;;;;,,.....+&&&&&&&&&&&%  ",
"  %&&&&&&&&++...##$#..=#$*****$.....,,,,........%%%++&&&&&&&&%  ",
"  %&&&&&&+%%%..@####..=##******$-.........-#$-..%%%%%%+&&&&&&%  ",
"  %&&&&++%%%%..-####..=##********$$===#$$****=..%%%%%%%++&&&&%  ",
"  %&&&&&&&&&&..-####..=##$*******************=..&&&&&&&&&&&&&%  ",
"  %&&&&&&&&&&..-####..=##$*******************-..&&&&&&&&&&&&&%  ",
"  %&&&&&&&&&+..-####..=###******************$-..%%++&&&&&&&&&%  ",
"  %&&&&&&&+%%..-####..=###******************$=..%%%%%+&&&&&&&%  ",
"  %&&&&&+%%%%..=####..=###$*****************#=..%%%%%%%+&&&&&%  ",
"  %&&&&++++++..-####..=####*****************#=..+++++++++&&&&%  ",
"  %&&&&&&&&&&..-####..=####$***************$#-..&&&&&&&&&&&&&%  ",
"  %&&&&&&&&&&..-####..=#####$**************##-..%++&&&&&&&&&&%  ",
"  %&&&&&&&++%..-####..=######$************###@..%%%%++&&&&&&&%  ",
"  %&&&&&+%%%%..@####..=########$$$*****$#####...%%%%%%%+&&&&&%  ",
"  %&&&&++++++...####-.=######################...+++++++++&&&&%  ",
"  %&&&&&&&&&&&..-###-.=#####################=...&&&&&&&&&&&&&%  ",
"  %&&&&&&&&&&&...-==@.=#####################-...++&&&&&&&&&&&%  ",
"  %&&&&&&&&++%........-########@..--====-###@..%%%%++&&&&&&&&%  ",
"  %&&&&&&+%%%%%%......-#######=........-####...%%%%%%%+&&&&&&%  ",
"  %&&&&+%%%%%%%%%%%...@#######=.......=####=...%%%%%%%%%+&&&&%  ",
"  %&&&&&&&&&&&&&&&&&...#######=...&..@#####=...&&&&&&&&&&&&&&%  ",
"   &&+&&&&&&&&&&&&&&...#######=...&..-#####=...&&&&&&&&&&&+&&   ",
"   &&%+&&&&&&&&&&&&&...=######=...&..-#####=...&&&&&&&&&&+%&&   ",
"   +&+&&&&&&&&&&&&&&...=######=..&&...#####=..&&&&&&&&&&&&+&+   ",
"    +&&&&&&&&&&&&&&&&..-######-..&&&..@----...&&&&&&&&&&&&&+    ",
"      %++++++++++++++...=####-...+++.........++++++++++++%      ",
"                     .....@@.....     .....                     ",
"                      ..........                                ",
"                        ......                                  ",
"                                                                ",
"                                                                ",
"                                                                ",
"                                                                ",
"                                                                ",
"                                                                ",
"                                                                ",
"                                                                "};
