/* XPM */
static char * amogus_c_xpm[] = {
"64 64 163 2",
"  	c #337A64",
". 	c #000038",
"+ 	c #00025E",
"@ 	c #00046C",
"# 	c #010266",
"$ 	c #000062",
"% 	c #00015D",
"& 	c #000125",
"* 	c #232422",
"= 	c #000200",
"- 	c #000021",
"; 	c #00007B",
"> 	c #0006AA",
", 	c #1404BF",
"' 	c #0506CF",
") 	c #1303DA",
"! 	c #000DD8",
"~ 	c #0006C4",
"{ 	c #0009AC",
"] 	c #020086",
"^ 	c #080051",
"/ 	c #000105",
"( 	c #0003B3",
"_ 	c #0F09D2",
": 	c #07004A",
"< 	c #09016F",
"[ 	c #01009F",
"} 	c #0D01BD",
"| 	c #000095",
"1 	c #090058",
"2 	c #050CC9",
"3 	c #000196",
"4 	c #000244",
"5 	c #0004CE",
"6 	c #0800BC",
"7 	c #0008BA",
"8 	c #140098",
"9 	c #1103BE",
"0 	c #1400AB",
"a 	c #0B008F",
"b 	c #000273",
"c 	c #000398",
"d 	c #000033",
"e 	c #02001D",
"f 	c #00028D",
"g 	c #090075",
"h 	c #00006A",
"i 	c #00003D",
"j 	c #030018",
"k 	c #000055",
"l 	c #04006D",
"m 	c #09005E",
"n 	c #000049",
"o 	c #02002F",
"p 	c #070044",
"q 	c #000044",
"r 	c #000118",
"s 	c #10007E",
"t 	c #030025",
"u 	c #00000C",
"v 	c #050034",
"w 	c #000150",
"x 	c #070050",
"y 	c #040702",
"z 	c #07003E",
"A 	c #030005",
"B 	c #000113",
"C 	c #00002A",
"D 	c #3E403D",
"E 	c #666865",
"F 	c #636663",
"G 	c #525451",
"H 	c #323431",
"I 	c #1F201E",
"J 	c #80827F",
"K 	c #B1B4B0",
"L 	c #C8CAC7",
"M 	c #D4D6D3",
"N 	c #D2D4D1",
"O 	c #B9BBB8",
"P 	c #5B5D5A",
"Q 	c #171816",
"R 	c #8D8F8C",
"S 	c #CBCECA",
"T 	c #E6E8E5",
"U 	c #EFF1EE",
"V 	c #F1F3F0",
"W 	c #E8EAE7",
"X 	c #BDBFBC",
"Y 	c #4A4C49",
"Z 	c #090C08",
"` 	c #373936",
" .	c #434542",
"..	c #474946",
"+.	c #595B58",
"@.	c #989A97",
"#.	c #EAEDE9",
"$.	c #F3F6F2",
"%.	c #F4F7F3",
"&.	c #F0F2EF",
"*.	c #D0D2CF",
"=.	c #676966",
"-.	c #0B0D0A",
";.	c #686A67",
">.	c #ADAFAC",
",.	c #C7C9C6",
"'.	c #C6C8C5",
").	c #DFE1DE",
"!.	c #ECEFEB",
"~.	c #F2F4F1",
"{.	c #E7E9E6",
"].	c #ACAEAB",
"^.	c #262825",
"/.	c #BCBEBB",
"(.	c #E3E6E2",
"_.	c #B5B8B4",
":.	c #10120F",
"<.	c #00022F",
"[.	c #8B8D8A",
"}.	c #DEE0DD",
"|.	c #CDD0CC",
"1.	c #616360",
"2.	c #454744",
"3.	c #DCDEDB",
"4.	c #E9EBE8",
"5.	c #D3D5D2",
"6.	c #868885",
"7.	c #878986",
"8.	c #D1D3D0",
"9.	c #949693",
"0.	c #ABADAA",
"a.	c #7C7E7B",
"b.	c #181917",
"c.	c #1D1F1D",
"d.	c #919390",
"e.	c #969895",
"f.	c #3D3F3C",
"g.	c #A0A29F",
"h.	c #484947",
"i.	c #BBBDBA",
"j.	c #D6D9D5",
"k.	c #CCCFCB",
"l.	c #979996",
"m.	c #464845",
"n.	c #717370",
"o.	c #777976",
"p.	c #AAACA9",
"q.	c #939592",
"r.	c #353734",
"s.	c #0D0065",
"t.	c #898B88",
"u.	c #A1A3A0",
"v.	c #A9ABA8",
"w.	c #90928F",
"x.	c #9A9D99",
"y.	c #30322F",
"z.	c #4E504D",
"A.	c #5F615E",
"B.	c #696B68",
"C.	c #5D5F5C",
"D.	c #414340",
"E.	c #060A05",
"F.	c #070039",
"                                                                                                                                ",
"                                                                                                                                ",
"                                                                                                                                ",
"                                                                                                                                ",
"                                                                                                                                ",
"                                                                                                                                ",
"                                                                                                                                ",
"                                                                                                                                ",
"                                                                                                                                ",
"                                                                                                                                ",
"                                                                                                                                ",
"                                                          . + @ # $ % &                                                         ",
"                                          * = = - ; > , ' ) ! ! ! ! ) ! ~ { ] ^                                                 ",
"                                      * = / @ ( _ ! ! ! ! ! ! ! ! ! ! ! ! ! ! ! ( :                                             ",
"                                    = = < , ! ! ! ! ! ! ! ! ! ! ! ! ! ! ! ! ! ! ! [ %                                           ",
"                                  = . { ! ! ! ) ! ! ! ! ! ! ! ) ! ! ! ! ! ! ! ! } | | 1                                         ",
"                                = 1 2 ! ! ! ! ! ! ! ! ! ! ! ! ! ! ! ! ! ! ! ! ' 3 | | ]                                         ",
"                              = $ ' ! ! ! ! ! ! ! ! ! ! ! ! ! ! ! ! ! ! ! ! ~ [ | | | |                                         ",
"                              4 5 ! ! ! ! ! ! ! ' ~ ~ 6 7 7 6 6 6 } } 6 ( 8 | | | | | |                                         ",
"                              9 ! ! ! ! ' } 0 [ | | | | | | | | | | | | | | | | | | | a                                         ",
"                            b ! ! ~ ( [ | | | | | | | | | | | | | | | | | | | | | | | ;                                         ",
"                            [ ( c | | | | | | | | | | | | | | | | | | | | | | | | | a d                                         ",
"                          e | | | | | | | | | | | | | | | | | a a f | | | | | | | | 1     g a f ] h d =                         ",
"                          i | | | | | | | | | | ] h : i j             i k l ] | | ;     m | | | | | a i =                       ",
"                          n | | | | | | ] m i                                 - 1 o   . a | | | | | | a - =                     ",
"                          p | | | | ; q         r p $ g ; s ] ] ] s ; l $ i           g | | | | | | | | h = *                   ",
"                          i | | ; i       t % ; | | | | | | | | | | | | | | a g q       l | | | | | | | a u =                   ",
"                          - a k       k ; | | | | | | | | | | | | | | | | | | | | g v     l | | | | | | | w =                   ",
"                          = -     i ] | | | | | | | | | | | | | | | | | | | | | | | | 1     g | | | | | | $ =                   ",
"                          = = d g | | | | | | f g $ x n d e & n % ; | | | | | | | | | | w   r ] | | | | | $ =                   ",
"                        y = z a | | | | a g i / = A d q w n q . B = e % ] | | | | | | | a C = 1 | | | | | $ =                   ",
"                        = . a | | | | ; d = C % ; a | | | | | | | ] $ - B h | | | | | | | g = u a | | | | k =                   ",
"                      = C f | | | | $ / n ; | | | | | | | | | | | | | a $ A k | | | | | | | i = h | | | | v =                   ",
"                      = ; | | | | m = m | | | | | | | | | | | | | | | | | ; r 1 | | | | | | h = i | | | f / =                   ",
"                      i | | | | h = $ | | | | | | | ] ; ; a | | | | | | | | b = ; | | | | | g = = a | | h =                     ",
"                      g | | | a e . | | | | | ] 1 B = = = / x ] | | | | | | | . p | | | | | ] = = a | a t =                     ",
"                      a | | | $ = g | | | | h A y D E F G * = r ] | | | | | | h / f | | | | | A = ] | h = H                     ",
"                    p | | | | q e | | | | ] A I J K L M N O P = : | | | | | | ] = g | | | | | u = f f j =                       ",
"                    w | | | ] C j q B u o & Q R S T U V V W X Y B | | | | | | | = h | | | | | = = a : =                         ",
"                    w | | l / = Z `  ...Y +.@.N #.$.%.%.%.&.*.=.= | | | | | | | = % | | | | f = = % = y                         ",
"                    n | ; / -.;.>.,.,.'.,.*.).!.~.%.%.%.$.{.].^.w | | | | | | | = % | | | | ] = = = =                           ",
"                    . | d = ;./.(.!.U !.!.&.V $.%.$.%.~._.=.:.<.] | | | | | | ] = h | | | | ; = = =                             ",
"                      g   ^.[.}.V %.~.W |.(.%.%.%.%.%.&.1.= x a | | | | | | | b = ; | | | | m = =                               ",
"                      t   2.[.O 3.4.5.6.I 7.~.%.%.%.%.%.8.H . | | | | | | | | i e | | | | | C =                                 ",
"                          G 9.0.>.0.a.b.c.d.M $.%.%.%.%.!.e.Z h | | | | | | g = % | | | | g =                                   ",
"                          f.@.].>.g.h.  2.g.>.i.N j.5.k.K l.m.e a | | | | l A n a | | | a . =                                   ",
"                            ;.l.g.n.    o.p.>.>.>.>.>.>.].@.G = ] a ] b q = : a | | | | k                                       ",
"                                      * 9.].>.>.>.>.>.>.p.q.r.= = = = = . h | | | | | s.                                        ",
"                                      ^.t.u.v.].>.>.].v.g.n.= k $ $ g f | | | | | | l                                           ",
"                                        G a.w.x.g.g.x.R n.b.: | | | | | | | | | a m                                             ",
"                                          y.z.A.=.B.C.D.E.z a | | | | | | | | b C                                               ",
"                                                      d h | | | | | | ] ; $ .                                                   ",
"                                                        C i n n F.C                                                             ",
"                                                                                                                                ",
"                                                                                                                                ",
"                                                                                                                                ",
"                                                                                                                                ",
"                                                                                                                                ",
"                                                                                                                                ",
"                                                                                                                                ",
"                                                                                                                                ",
"                                                                                                                                ",
"                                                                                                                                ",
"                                                                                                                                "};
