/* XPM */
static char * amogus_box_xpm[] = {
"64 64 195 2",
"  	c #578256",
". 	c #659765",
"+ 	c #6A9E69",
"@ 	c #0F170F",
"# 	c #000000",
"$ 	c #152015",
"% 	c #659764",
"& 	c #669865",
"* 	c #679865",
"= 	c #679966",
"- 	c #6EA36D",
"; 	c #72AA71",
"> 	c #72AA72",
", 	c #72A971",
"' 	c #71AA71",
") 	c #71AA70",
"! 	c #72AA73",
"~ 	c #73AA73",
"{ 	c #6CA16D",
"] 	c #6CA16B",
"^ 	c #689C67",
"/ 	c #659664",
"( 	c #6EA36C",
"_ 	c #4E754D",
": 	c #588357",
"< 	c #6DA36C",
"[ 	c #4D754C",
"} 	c #6CA26C",
"| 	c #6A9F69",
"1 	c #598458",
"2 	c #6EA46D",
"3 	c #4D754E",
"4 	c #000100",
"5 	c #6BA06A",
"6 	c #4D754D",
"7 	c #4D744C",
"8 	c #659865",
"9 	c #4D744D",
"0 	c #4C744E",
"a 	c #4C754C",
"b 	c #4C744D",
"c 	c #4E744D",
"d 	c #4E744C",
"e 	c #4C744C",
"f 	c #669966",
"g 	c #6EA56D",
"h 	c #679A66",
"i 	c #679A67",
"j 	c #6CA26B",
"k 	c #547C53",
"l 	c #4F754E",
"m 	c #4F744E",
"n 	c #578357",
"o 	c #669764",
"p 	c #669866",
"q 	c #5C8A5B",
"r 	c #537B52",
"s 	c #679864",
"t 	c #557D54",
"u 	c #50764F",
"v 	c #50754F",
"w 	c #517750",
"x 	c #50774F",
"y 	c #4F754F",
"z 	c #547B53",
"A 	c #598659",
"B 	c #6DA36D",
"C 	c #629362",
"D 	c #689966",
"E 	c #659866",
"F 	c #659766",
"G 	c #6BA06B",
"H 	c #669765",
"I 	c #649664",
"J 	c #50754E",
"K 	c #4F734E",
"L 	c #679B66",
"M 	c #679965",
"N 	c #598558",
"O 	c #689A67",
"P 	c #4E734D",
"Q 	c #669965",
"R 	c #649563",
"S 	c #5B8B5C",
"T 	c #5A8659",
"U 	c #689A66",
"V 	c #537A52",
"W 	c #5C8A5C",
"X 	c #659966",
"Y 	c #507750",
"Z 	c #4D744E",
"` 	c #517B51",
" .	c #547F55",
"..	c #669A65",
"+.	c #649663",
"@.	c #5A865A",
"#.	c #537C53",
"$.	c #5E8C5D",
"%.	c #517650",
"&.	c #4E744E",
"*.	c #517850",
"=.	c #578458",
"-.	c #629361",
";.	c #51764F",
">.	c #4F744D",
",.	c #639462",
"'.	c #5E8C5C",
").	c #507850",
"!.	c #568156",
"~.	c #4C754D",
"{.	c #689B67",
"].	c #639362",
"^.	c #50764E",
"/.	c #649564",
"(.	c #5F8E5F",
"_.	c #527952",
":.	c #568055",
"<.	c #517A51",
"[.	c #51774F",
"}.	c #557F55",
"|.	c #547D54",
"1.	c #598559",
"2.	c #517951",
"3.	c #609160",
"4.	c #629261",
"5.	c #679967",
"6.	c #527B52",
"7.	c #669864",
"8.	c #629462",
"9.	c #689B66",
"0.	c #629262",
"a.	c #679866",
"b.	c #5A9059",
"c.	c #5E935D",
"d.	c #5D925C",
"e.	c #5F935E",
"f.	c #5B915A",
"g.	c #5C915B",
"h.	c #537C52",
"i.	c #527A52",
"j.	c #5B8A5A",
"k.	c #F3F6F3",
"l.	c #ECF2EC",
"m.	c #C3D5C3",
"n.	c #B4CDB4",
"o.	c #FFFFFF",
"p.	c #EFF4F0",
"q.	c #F1F5F1",
"r.	c #EAF1EA",
"s.	c #DCE7DC",
"t.	c #F7FAF8",
"u.	c #F9FAFA",
"v.	c #DDE7DD",
"w.	c #EFF3EF",
"x.	c #E2EBE2",
"y.	c #527951",
"z.	c #598859",
"A.	c #ACC8AC",
"B.	c #C5D8C5",
"C.	c #BED5BD",
"D.	c #AAC7A9",
"E.	c #CEDFCE",
"F.	c #C7DAC6",
"G.	c #5D935C",
"H.	c #B3CBB2",
"I.	c #9CBE9B",
"J.	c #C8DBC7",
"K.	c #AEC9AD",
"L.	c #BDD2BC",
"M.	c #B8D0B8",
"N.	c #B9D0B8",
"O.	c #BDD3BC",
"P.	c #527751",
"Q.	c #527750",
"R.	c #4F764F",
"S.	c #5A875B",
"T.	c #5E8F5F",
"U.	c #70A66F",
"V.	c #070B07",
"W.	c #060A06",
"X.	c #070A06",
"Y.	c #070A07",
"Z.	c #679764",
"`.	c #5A8658",
" +	c #010201",
".+	c #020302",
"++	c #496C48",
"@+	c #3D5B3C",
"#+	c #3D5A3C",
"$+	c #649463",
"%+	c #639463",
"&+	c #588558",
"*+	c #4D734C",
"=+	c #4D734D",
"-+	c #5F8E5E",
"  . + @ # # # # # # # # # # # # # # # # # # # # # # # # # # # # # # # # # # # # # # # # # # # # # # # # # # # # # # # # # $ + % ",
"& * = - ; ; ; ; ; ; ; ; ; ; ; ; ; ; ; ; ; ; ; ; ; > ; ; ; ; ; ; ; ; ; ; ; ; ; ; ; ; ; ; ; ; ; ; ; ; , , ' ; ) > ! > > ! ~ { % . ",
"& & ] # # # # # # # # # # # # # # # # # # # # # # # # # # # # # # # # # # # # # # # # # # # # # # # # # # # # # # # # # # # ^ / ",
"( % _ # # # # # # # # # # # # # # # # # # # # # # # # # # # # # # # # # # # # # # # # # # # # # # # # # # # # # # # # # # # : & ",
"< % [ # # } % % % % % % % % % % % % % % % % % % % % % % % % % % % % % % % % % % % % % % % % % % % % % % % % % % % % % | # # 1 & ",
"2 % 3 4 # < & & & & & & & & & & & & & & & & & & & & & & & & & & & & & & & & & & & & & & & & & & & & & & & & & & & & & 5 # # 1 & ",
"2 % 6 4 # 2 = = = = = = = = = = = = = = = = = = = = = = = = = = = = = = = = = = = = = = = = = = = = = = = = = = = = = ] # # 1 & ",
"2 % 7 4 # 2 = = = = = = = = = = = = = = = = = = = = = = = = = = = = = = = = = = = = = = = = = = = = = = = = = = = = = ] # # 1 8 ",
"2 % 9 4 # 2 = = = = = = = = = = = = = = = = = = = = = = = = = = = = = = = = = = = = = = = = = = = = = = = = = = = = = ] # # 1 * ",
"2 % 0 4 # 2 = = = = = = = = = = = = = = = = = = = = = = = = = = = = = = = = = = = = = = = = = = = = = = = = = = = = = ] # # 1 & ",
"2 % a 4 # 2 = = = = = = = = = = = = = = = = = = = = = = = = = = = = = = = = = = = = = = = = = = = = = = = = = = = = = ] # # 1 & ",
"2 % 6 4 # 2 = = = = = = = = = = = = = = = = = = = = = = = = = = = = = = = = = = = = = = = = = = = = = = = = = = = = = ] # # 1 * ",
"2 % b 4 # 2 = = = = = = = = = = = = = = = = = = = = = = = = = = = = = = = = = = = = = = = = = = = = = = = = = = = = = ] # # 1 & ",
"2 % c 4 # 2 = = = = = = = = = = = = = = = = = = = = = = = = = = = = = = = = = = = = = = = = = = = = = = = = = = = = = ] # # 1 * ",
"2 % 6 4 # 2 = = = = = = = = = = = = = = = = = = = = = = = = = = = = = = = = = = = = = = = = = = = = = = = = = = = = = ] # # 1 * ",
"2 % c 4 # 2 = = = = = = = = = = = = = = = = = = = = = = = = = = = = = = = = = = = = = = = = = = = = = = = = = = = = = ] # # 1 * ",
"2 % b 4 # 2 = = = = = = = = = = = = = = = = = = = = = = = = = = = = = = = = = = = = = = = = = = = = = = = = = = = = = ] # # 1 * ",
"( / 9 4 # 2 = = = = = = = = = = = = = = = = = = = = = = = = = = = = = = = = = = = = = = = = = = = = = = = = = = = = = ] # # 1 8 ",
"( / d 4 # 2 = = = = = = = = = = = = = = = = = = = = = = = = = = = = = = = = = = = = = = = = = = = = = = = = = = = = = ] # # 1 * ",
"2 / e 4 # 2 = = = = = = = = = = = = = = = = = = = = = = = = = = = = = = = = = = = = = = = = = = = = = = = = = = = = = ] # # 1 * ",
"2 % 6 4 # 2 = = = = = = = = = = = = = = = = = = = = = = = = = = = = = = = = = = = = = = = = = = = = = = = = = = = = = ] # # 1 * ",
"2 / b 4 # < & & & & & & & & & & & & & = = = = = = = = = = = = = = = = = = = = = = = = = = f & & & & & & & & & & & & & 5 # # 1 * ",
"- / c 4 # g h h h h h h h h h h h h h = = = = = = = = = = = = = = = = = = = = = = = = = = f & i h h h h h h h h h h h j # # 1 * ",
"- / c 4 # k l l l l l l l l l l l l m n o f = = = = = = = = = = = = = = = = = = = = = = p % q m l l l l l l l l l l l r # # 1 s ",
"2 / c 4 # t u v v v v v v v v v v u w x f f = = = = = = = = = = = = = = = = = = = = = = = h y x u u v v v v v v v v v z # # A % ",
"2 / 6 4 # B p p p p p p p p p & . C u _ D = = = = = = = = = = = = = = = = = = = = = = = % 8 y l E F p p p p p p p p p G # # : H ",
"2 / [ 4 # < & & & & & & & & & & % I J K L f = = = = = = = = = = = = = = = = = = = = = M % N w l h & & & & & & & & & & 5 # # 1 & ",
"2 / 9 4 # 2 = = = = = = = = = = = O P m & % = = = = = = = = = = = = = = = = = = = = = Q = u w 1 % M = = = = = = = = = ] # # 1 * ",
"2 / [ 4 # 2 = = = = = = = = = = = L m l R & = = = = = = = = = = = = = = = = = = = = = o Q l l 8 H = = = = = = = = = = ] # # 1 * ",
"2 / b 4 # 2 = = = = = = = = = = = h l w S & = = = = = = = = = = = = = = = = = = = = = % T w l U & = = = = = = = = = = ] # # 1 & ",
"2 % d 4 # 2 = = = = = = = = = = = & V u W & = = = = = = = = = = = = = = = = = = = = X = Y w   % & = = = = = = = = = = ] # # 1 * ",
"2 / Z 4 # 2 = = = = = = = = = = = & ` w  .& = = = = = = = = = = = = = = = = = = = = o ..c l +.% & = = = = = = = = = = ] # # 1 & ",
"2 % 9 4 # 2 = = = = = = = = = = = % @.w #.& = = = = = = = = = = = = = = = = = = = = % W w m i f = = = = = = = = = = = ] # # 1 & ",
"2 / 6 4 # 2 = = = = = = = = = = = & $.%.&.i f = = = = = = = = = = = = = = = = = = p = *.u =.% = = = = = = = = = = = = ] # # 1 & ",
"2 / 7 4 # 2 = = = = = = = = = = = & -.;.>.h & = = = = = = = = = = = = = = = = = = % h c u ,.% f = = = = = = = = = = = ] # # 1 & ",
"2 / 9 4 # 2 = = = = = = = = = = = & = m P O & = = = = = = = = = = = = = = = = = M % '.w c O f = = = = = = = = = = = = ] # # 1 * ",
"2 % c 4 # 2 = = = = = = = = = = = % h m v +.% = = = = = = = = = = = = = = = = = M = ).w !.% = = = = = = = = = = = = = ] # # 1 * ",
"2 / ~.4 # 2 = = = = = = = = = = = & {.K u ].& = = = = = = = = = = = = = = = = = & L c ^./.% = = = = = = = = = = = = = ] # # 1 & ",
"2 / 3 4 # 2 = = = = = = = = = = = & = *.u q & = = = = = = = = = = = = = = = = = % (.;.>.O f = = = = = = = = = = = = = ] # # 1 & ",
"2 / [ 4 # 2 = = = = = = = = = = = = = _.w :.& = = = = = = = = = = = = = = = = & = <.[.}.& = = = = = = = = = = = = = = ] # # 1 * ",
"2 / 9 4 # 2 = = = = = = = = = = = = % A w |.% = = = = = = = = = = = = = = = = = h P u ,.o = = = = = = = = = = = = = = ] # # 1 & ",
"2 % 9 4 # 2 = = = = = = = = = = = = & 1.[.2.= = = = = = = = = = = = = = = = f % 3.;.P O & = = = = = = = = = = = = = = ] # # 1 & ",
"2 % 6 4 # 2 = = = = = = = = = = = = & 4.u v 5.X = = = = = = = = = = = = = = p & 6.u k 7.M = = = = = = = = = = = = = = ] # # 1 & ",
"2 / 7 4 # 2 = = = = = = = = = = = = & 8.u P 9.Q = = = = = = = = = = = = = = & i P u 0.% = = = = = = = = = = = = = = = ] # # 1 & ",
"2 / 9 4 # 2 = = = = = = = = = = = = & O _ m h H = = = = = = = = = = = = = = % 4.u P {.a.= = = = = = = = = = = = = = = ] # # 1 * ",
"2 % ~.4 # 2 = = = = = = = = = = = = % h m l / b.c.d.e.f.f.= c.d.g.c.d.d.d.g.& h.u i.p & = = = = = = = = = = = = = = = ] # # 1 * ",
"2 % _ 4 # 2 = = = = = = = = = = = = & h c u j.k.l.m.n.o.p.O q.r.s.t.u.v.w.x.{.c u 3.% & = = = = = = = = = = = = = = = ] # # 1 * ",
"2 % 6 4 # 2 = = = = = = = = = = = = & & y.u z.A.B.C.D.E.F.G.H.I.J.K.L.M.N.O.8.u P {.p = = = = = = = = = = = = = = = = ] # # 1 * ",
"2 % 9 4 # 2 = = = = = = = = = = = = & & }.%.l %.P.P.w P.P.v P.%.P.w P.P.P.Q.R.w 2.= & = = = = = = = = = = = = = = = = ] # # 1 * ",
"2 % 9 4 # 2 = = = = = = = = = = = = f o S.%.w w w w w w w w w w w w w w w w w u T.H = = = = = = = = = = = = = = = = = ] # # 1 & ",
"2 % 9 4 # 2 = = = = = = = = = = = = = f f 4.3.3.3.3.3.3.3.3.3.3.3.3.3.3.3.3.3.8.& & = = = = = = = = = = = = = = = = = ] # # 1 & ",
"2 % _ 4 # 2 = = = = = = = = = = = = = & Q & & & & & & & & & & & & & & & & & & & & & = = = = = = = = = = = = = = = = = ] # # 1 * ",
"2 % e 4 # 2 = = = = = = = = = = = = = = = = = = = = = = = = = = = = = = = = = = = = = = = = = = = = = = = = = = = = = ] # # 1 * ",
"2 % 9 4 # 2 = = = = = = = = = = = = = = = = = = = = = = = = = = = = = = = = = = = = = = = = = = = = = = = = = = = = = ] # # 1 * ",
"2 % 6 4 # 2 = = = = = = = = = = = = = = = = = = = = = = = = = = = = = = = = = = = = = = = = = = = = = = = = = = = = = ] # # 1 * ",
"2 % ~.4 # 2 = = = = = = = = = = = = = = = = = = = = = = = = = = = = = = = = = = = = = = = = = = = = = = = = = = = = = ] # # 1 * ",
"2 % [ 4 # 2 = = = = = = = = = = = = = = = = = = = = = = = = = = = = = = = = = = = = = = = = = = = = = = = = = = = = = ] # # 1 * ",
"2 % a 4 # 2 = = = = = = = = = = = = = = = = = = = = = = = = = = = = = = = = = = = = = = = = = = = = = = = = = = = = = ] # # 1 * ",
"2 % b 4 # U.{.{.{.{.{.{.{.{.{.{.{.{.{.{.{.{.{.{.{.{.{.{.{.{.{.{.{.{.{.{.{.{.{.{.{.{.{.{.{.{.{.{.{.{.{.{.{.{.{.{.{.{.{.< # # 1 * ",
"< % 9 4 # V.W.X.Y.X.W.X.X.X.W.X.X.W.X.X.X.W.X.W.X.X.W.X.X.X.X.X.X.X.X.X.X.X.W.X.X.W.X.X.W.X.X.X.X.X.X.W.X.X.W.X.X.X.X.V.# # 1 Z.",
"} % `.#  +.+.+.+.+.+.+.+.+.+.+.+.+.+.+.+.+.+.+.+.+.+.+.+.+.+.+.+.+.+.+.+.+.+.+.+.+.+.+.+.+.+.+.+.+.+.+.+.+.+.+.+.+.+.+.+ +# 1 o ",
"& & & ++@+#+#+#+#+#+#+#+#+#+#+#+#+#+#+#+#+#+#+#+#+#+#+#+#+#+#+#+#+#+#+#+#+#+#+#+#+#+#+#+#+#+#+#+#+#+#+#+#+#+#+#+#+#+#+#+@+9 = a.",
"& & & R $+$+$+$+$+$+$+$+$+$+$+$+$+$+$+$+$+$+$+$+$+$+$+$+$+$+$+$+$+$+$+$+$+$+$+$+$+$+%+,.].].,.].].,.].].].,.].].].-.].].].R = = ",
"h p H &+c c c c c c c c c c c c c c c c c c c c c c c c c c c c c c c c c c c c c c c c c c c c 9 *+=+9 c c c c c c c c c -+% & "};
