/* XPM */
static char * vent_1_xpm[] = {
"64 64 195 2",
"  	c #337A64",
". 	c #FE0000",
"+ 	c #FC0001",
"@ 	c #F80000",
"# 	c #FF0405",
"$ 	c #FE0004",
"% 	c #FF0400",
"& 	c #FA2C2F",
"* 	c #EE5455",
"= 	c #DD6B6E",
"- 	c #D07473",
"; 	c #CB7779",
"> 	c #D47173",
", 	c #DE6C6F",
"' 	c #E26869",
") 	c #E96063",
"! 	c #EE5C5E",
"~ 	c #EF5D5F",
"{ 	c #E66569",
"] 	c #EA6164",
"^ 	c #F3595F",
"/ 	c #F25858",
"( 	c #F74143",
"_ 	c #FA1918",
": 	c #F9160D",
"< 	c #E17D7E",
"[ 	c #C6A3A4",
"} 	c #B8BCBF",
"| 	c #B7C6CC",
"1 	c #B6C5CB",
"2 	c #B5C1C2",
"3 	c #C1ADB0",
"4 	c #D58F96",
"5 	c #F24542",
"6 	c #EB5153",
"7 	c #C8A5A6",
"8 	c #BBC0C2",
"9 	c #B5C4CA",
"0 	c #B8C5C5",
"a 	c #ED4B4D",
"b 	c #FE0010",
"c 	c #BDBBBF",
"d 	c #F23B39",
"e 	c #DE656C",
"f 	c #9E9B9F",
"g 	c #9FADB4",
"h 	c #B47178",
"i 	c #F8131E",
"j 	c #EF0003",
"k 	c #F5494A",
"l 	c #B2A8AE",
"m 	c #6B7480",
"n 	c #7F8896",
"o 	c #B4C3C9",
"p 	c #A6B5BB",
"q 	c #9CAAB0",
"r 	c #9BA9AF",
"s 	c #778793",
"t 	c #6D737B",
"u 	c #DB7879",
"v 	c #A4B2B9",
"w 	c #ABBAC0",
"x 	c #B3C1C8",
"y 	c #ACBBC1",
"z 	c #829096",
"A 	c #5D6673",
"B 	c #545F71",
"C 	c #556072",
"D 	c #6C7581",
"E 	c #86909D",
"F 	c #A0AEB5",
"G 	c #A8B7BD",
"H 	c #A2B0B7",
"I 	c #BDB2B9",
"J 	c #F44849",
"K 	c #9EACB2",
"L 	c #86949A",
"M 	c #4F5B6C",
"N 	c #505C6D",
"O 	c #525E6F",
"P 	c #87959B",
"Q 	c #F6262C",
"R 	c #BABFC1",
"S 	c #A3B1B8",
"T 	c #7C8A90",
"U 	c #616A76",
"V 	c #575F6C",
"W 	c #535E70",
"X 	c #626B77",
"Y 	c #7E8C92",
"Z 	c #D58082",
"` 	c #F00000",
" .	c #C65850",
"..	c #B6C2C3",
"+.	c #AFBDC4",
"@.	c #98A6AC",
"#.	c #94A3A9",
"$.	c #B1BFC6",
"%.	c #BEB3BA",
"&.	c #F23031",
"*.	c #B9C6C6",
"=.	c #B0BEC5",
"-.	c #E45356",
";.	c #92A1A7",
">.	c #828890",
",.	c #727A87",
"'.	c #7D8B91",
").	c #93A2A8",
"!.	c #EA474A",
"~.	c #849298",
"{.	c #656E7A",
"].	c #565E6B",
"^.	c #666F7B",
"/.	c #A5B4BA",
"(.	c #EB3F43",
"_.	c #95A4AA",
":.	c #767F8D",
"<.	c #576274",
"[.	c #4E5A6B",
"}.	c #5A6370",
"|.	c #78818F",
"1.	c #97A5AB",
"2.	c #8D9BA2",
"3.	c #7C8593",
"4.	c #798290",
"5.	c #7D8694",
"6.	c #8F9DA4",
"7.	c #EC3F3D",
"8.	c #91A0A6",
"9.	c #8C9AA1",
"0.	c #8B99A0",
"a.	c #758389",
"b.	c #5C6572",
"c.	c #AAB9BF",
"d.	c #6E7683",
"e.	c #6A737F",
"f.	c #7A8391",
"g.	c #B2C0C7",
"h.	c #EF393D",
"i.	c #AEBCC3",
"j.	c #A7B6BC",
"k.	c #808E94",
"l.	c #4E596A",
"m.	c #818F95",
"n.	c #59626F",
"o.	c #7E8795",
"p.	c #E94649",
"q.	c #7D8D99",
"r.	c #5F6874",
"s.	c #5B6471",
"t.	c #99A7AD",
"u.	c #9AA8AE",
"v.	c #68717D",
"w.	c #606975",
"x.	c #7A888E",
"y.	c #E94643",
"z.	c #7F8D93",
"A.	c #515D6E",
"B.	c #E84E51",
"C.	c #89979D",
"D.	c #E45351",
"E.	c #8A989E",
"F.	c #BBC7C7",
"G.	c #7B8492",
"H.	c #E15857",
"I.	c #566173",
"J.	c #DA6162",
"K.	c #A1AFB6",
"L.	c #69727E",
"M.	c #DF575B",
"N.	c #E54B49",
"O.	c #E83032",
"P.	c #F5242B",
"Q.	c #F6101D",
"R.	c #BBB1B8",
"S.	c #DD7378",
"T.	c #CB6F6E",
"U.	c #B5BBC4",
"V.	c #C49B9E",
"W.	c #F93736",
"X.	c #F92A27",
"Y.	c #D88284",
"Z.	c #C4A9AE",
"`.	c #D29398",
" +	c #F24F50",
".+	c #F8373C",
"++	c #DA6F6F",
"@+	c #DA7075",
"#+	c #D96E6E",
"$+	c #D86F74",
"%+	c #E56468",
"&+	c #E56363",
"*+	c #F35959",
"=+	c #F45151",
"-+	c #FA393D",
"                                                                                                                                ",
"                                                                                                                                ",
"                                                                                                                                ",
"                                                                                                                                ",
"                                                                                                                                ",
"                                                                                                                                ",
"                                                                                                                                ",
"                                                                                                                                ",
"                                                                                                                                ",
"                . . . . . . . + + + + + + + + + + + + + + + + + + + + . . . . . . . . . . . . . . . . + + . + .                 ",
"            @ . . . . # $ $ $ $ # # # # # # % % % % % # # # # # # # # # # # # # # # % % % % . . . . . . . . . . . .             ",
"          + . . . & * = - ; - > , , , , = ' ) ! ~ ! ) { ' ' ' ' ' ' ' ' ' { { { { ' ] ! ~ ~ ~ ^ ^ ^ ^ ^ ^ / ( _ . . .           ",
"      . . . . : < [ } | | 1 | | | | | | | | | | | | | | | | | | | | | | | | | | | | | | | | 1 1 1 1 1 1 1 2 3 4 5 . . .         ",
"    . . . $ 6 7 8 9 9 9 9 9 9 9 9 9 9 9 9 9 9 9 9 9 9 9 9 9 9 9 9 9 9 9 9 9 9 9 9 9 9 9 9 9 9 9 9 9 9 9 9 9 9 0 3 a % . @       ",
"    . . b ' c 9 9 9 9 9 9 9 9 9 9 9 9 9 9 9 9 9 9 9 9 9 9 9 9 9 9 9 9 9 9 9 9 9 9 9 9 9 9 9 9 9 9 9 9 9 9 9 9 9 9 3 d . . @     ",
"  . . $ e f g 0 9 9 9 9 9 9 9 9 1 1 1 1 1 1 1 1 1 1 1 1 1 1 1 1 1 1 1 1 1 1 1 1 1 1 1 1 1 1 1 1 9 9 9 9 9 9 9 9 9 g h i . + j   ",
"  . . k l m n 1 9 9 9 9 9 9 o p q r r r r r r r r r r r r r r r r r r r r r r r r r r r r r r q p o 9 9 9 9 9 9 9 s t > b . @   ",
". . $ u 1 v w 9 9 9 x y g z m A B B B B B B B B B B B B B B B B B B B B B B B B B B B B B B B C A D E F y o 9 9 9 G H I J . . @ ",
". . _ 3 9 9 9 9 9 K L m B M N O O O O O O O O O O O O O O O O O O O O O O O O O O O O O O O O O O N M B D P F 1 9 9 9 | ' # . @ ",
"+ . Q R 9 9 9 S T U V W V V V V V V V V V V V V V V V V V V V V V V V V V V V V V V V V V V V V V V V V W C X Y p 9 9 1 Z $ . ` ",
". .  ...9 9 +.@.#.#.#.#.#.#.#.#.#.#.#.#.#.#.#.#.#.#.#.#.#.#.#.#.#.#.#.#.#.#.#.#.#.#.#.#.#.#.#.#.#.#.#.#.#.#.#.#.@.$.9 9 %.&.. @ ",
". .   ..9 9 9 1 1 1 1 1 1 *.*.x =.=.=.=.=.=.=.=.=.=.=.=.=.=.=.=.=.=.=.=.=.=.=.=.=.=.=.=.=.=.=.=.x *.*.1 1 1 1 1 1 9 9 9 0 -.. @ ",
". .   ..9 9 9 9 9 9 9 9 w ;.>.,.m m m m m m m m m m m m m m m m m m m m m m m m m m m m m m m D ,.'.).y 9 9 9 9 9 9 9 9 ..!.. @ ",
". .   ..9 9 9 9 9 +.v ~.{.W ].O O O O O O O O O O O O O O O O O O O O O O O O O O O O O O O O O O W W ^.L /.=.9 9 9 9 9 ..(.. @ ",
". .   ..9 9 9 +._.:.<.[.N N N N N N N N N N N N N N N N N N N N N N N N N N N N N N N N N N N N N N N N [.}.|.1.=.9 9 9 ..(.. @ ",
". .   ..9 9 +.2.3.|.4.4.4.4.4.4.4.4.4.4.4.4.4.4.4.4.4.4.4.4.4.4.4.4.4.4.4.4.4.4.4.4.4.4.4.4.4.4.4.4.4.4.4.4.|.5.6.=.9 9 ..(.. + ",
". .   ..9 9 9 9 9 9 9 9 9 9 9 9 9 9 9 9 9 9 9 9 9 9 9 9 9 9 9 9 9 9 9 9 9 9 9 9 9 9 9 9 9 9 9 9 9 9 9 9 9 9 9 9 9 9 9 9 ..7.. @ ",
". .   ..9 9 9 9 9 9 9 1 9 G r 8.9.0.0.0.0.0.0.0.0.0.0.0.0.0.0.0.0.0.0.0.0.0.0.0.0.0.0.0.0.0.0.9.8.r G 9 1 9 9 9 9 9 9 9 ..7.. @ ",
". .   ..9 9 9 9 9 9 +.8.a.^.b.].N N N N N N N N N N N N N N N N N N N N N N N N N N N N N N N N ].b.^.|.).+.9 9 9 9 9 9 ..7.. + ",
". .   ..9 9 9 x c.6.d.V O O O O O O O O O O O O O O O O O O O O O O O O O O O O O O O O O O O O O O O O V d.;.c.o 9 9 9 ..7.. . ",
". .   ..9 9 $.#.4.m m m m m m m m m m m m m m m m m m m m m m m m m m m m m m m m m m m m m m m m m m m m m e.f.@.g.9 9 ..h.. . ",
". .   ..9 9 o i.y y y y y y y y y y y y y y y y y y y y y y y y y y y y y y y y y y y y y y y y y y y y y y y y i.o 9 9 ..7.. . ",
". .   ..9 9 9 9 9 9 9 9 9 g.y G H F F F F F F F F F F F F F F F F F F F F F F F F F F F F F F H G y x 9 9 9 9 9 9 9 9 9 ..7.. . ",
". .   ..9 9 9 9 9 1 9 j._.k.d.C l.[.[.[.[.[.[.[.[.[.[.[.[.[.[.[.[.[.[.[.[.[.[.[.[.[.[.[.[.[.[.l.C d.m._.j.9 1 9 9 9 9 9 ..(.. . ",
". .   ..9 9 9 9 o q 5.^.n.O O O O O O O O O O O O O O O O O O O O O O O O O O O O O O O O O O O O O O <.^.o.K o 9 9 9 9 ..p.. @ ",
". .   ..9 9 o p q.r.s.s.s.s.s.s.s.s.s.s.s.s.s.s.s.s.s.s.s.s.s.s.s.s.s.s.s.s.s.s.s.s.s.s.s.s.s.s.s.s.s.s.s.s.r.m.G 9 9 9 ..!.. . ",
". .   ..9 9 $.q t.u.u.u.u.u.u.u.u.u.u.u.u.u.u.u.u.u.u.u.u.u.u.u.u.u.u.u.u.u.u.u.u.u.u.u.u.u.u.u.u.u.u.u.u.u.u.t.K g.9 9 ..7.. . ",
". .   ..9 9 9 9 9 9 9 9 9 9 9 9 $.=.=.=.=.=.=.=.=.=.=.=.=.=.=.=.=.=.=.=.=.=.=.=.=.=.=.=.=.=.=.$.9 9 9 9 9 9 9 9 9 9 9 9 ..7.. . ",
". .   ..9 9 9 9 9 9 9 g.G ;.s v.w.w.w.w.w.w.w.w.w.w.w.w.w.w.w.w.w.w.w.w.w.w.w.w.w.w.w.w.w.w.w.w.v.x.).G x 9 9 9 9 9 9 9 ..y.. . ",
". .   ..9 9 9 9 1 y t.z.w.N N A.O O O O O O O O O O O O O O O O O O O O O O O O O O O O O O O O A.N M U m.u.+.1 9 9 9 9 ..B.. . ",
". .   ..9 9 9 y C.m s.O O O O O O O O O O O O O O O O O O O O O O O O O O O O O O O O O O O O O O O O O O b.d.0.+.9 9 9 ..D.. . ",
". .   ..9 9 i.E.T 5.x.x.x.x.x.x.x.x.x.x.x.x.x.x.x.x.x.x.x.x.x.x.x.x.x.x.x.x.x.x.x.x.x.x.x.x.x.x.x.x.x.x.x.x.5.T 2.=.9 9 ..B.. . ",
". .   ..9 9 9 1 1 1 1 1 1 1 | | F.F.F.F.F.F.F.F.F.F.F.F.F.F.F.F.F.F.F.F.F.F.F.F.F.F.F.F.F.F.F.F.| | 1 1 1 1 1 1 1 9 9 9 ..B.. . ",
". .   ..9 9 9 9 9 9 9 9 9 c.).z G.f.f.f.f.f.f.f.f.f.f.f.f.f.f.f.f.f.f.f.f.f.f.f.f.f.f.f.f.f.f.G.z #.w 9 9 9 9 9 9 9 9 9 ..H.. . ",
". .   ..9 9 9 9 9 o w 8.,.I.V W O O O O O O O O O O O O O O O O O O O O O O O O O O O O O O O O W V I.,.).w o 9 9 9 9 9 ..J.. . ",
". .   ..9 9 9 o K.P L.M N N N N N N N N N N N N N N N N N N N N N N N N N N N N N N N N N N N N N N N N N e.C.H o 9 9 9 ..J.. . ",
". .   ..9 9 i.E.:.d.D D D D D D D D D D D D D D D D D D D D D D D D D D D D D D D D D D D D D D D D D D D D d.:.9.=.9 9 ..M.. . ",
". .   ..9 9 9 9 9 9 9 9 9 9 9 9 9 9 9 9 9 9 9 9 9 9 9 9 9 9 9 9 9 9 9 9 9 9 9 9 9 9 9 9 9 9 9 9 9 9 9 9 9 9 9 9 9 9 9 9 ..N.. . ",
". . O...$.r c.9 9 9 9 9 9 9 9 9 9 9 9 9 9 9 9 9 9 9 9 9 9 9 9 9 9 9 9 9 9 9 9 9 9 9 9 9 9 9 9 9 9 9 9 9 9 9 9 9 9 c.r $.%.P.. . ",
". . Q.R.F {.C.1 9 9 9 9 9 9 9 9 9 9 9 9 9 9 9 9 9 9 9 9 9 9 9 9 9 9 9 9 9 9 9 9 9 9 9 9 9 9 9 9 9 9 9 9 9 9 9 9 1 C.^.K.S.$ . . ",
". . $ T.U.1.c.9 9 9 9 9 9 9 9 9 9 9 9 9 9 9 9 9 9 9 9 9 9 9 9 9 9 9 9 9 9 9 9 9 9 9 9 9 9 9 9 9 9 9 9 9 9 9 9 9 9 c.1.V.W.. .   ",
". . . X.Y.Z.8 | | | | | | | | | | | | | | | | | | | | | | | | | | | | | | | | | | | | | | | | | | | | | | | 1 9 } 3 `. +. . .   ",
"  . . . b .+/ ] ' = , = = ' ' ' ' ' , ++@+#+= , ' ' ' ' ' ' $+@+@+@+@+= , ' ' %+) %+' ' ' ' ' ' ' ' ' &+) ) ~ *+=+-+b . . .     ",
"    . . . . . % # # $ # # # # # # # # $ $ $ # # # # # # # # $ $ $ $ $ # # # # # % # # # # # # # # # # # % % . . . . . . . .     ",
"        . . + @ @ . . @ @ . . . . . . . . . . . . . . . . . . . . . . . . . . . . . . . . . . . . . . . . . . . . . . .         ",
"                                                                                                                                ",
"                                                                                                                                ",
"                                                                                                                                ",
"                                                                                                                                ",
"                                                                                                                                ",
"                                                                                                                                ",
"                                                                                                                                ",
"                                                                                                                                ",
"                                                                                                                                "};
