/* XPM */
static char * vent_0_xpm[] = {
"64 64 124 2",
"  	c #337A64",
". 	c #B8BCBD",
"+ 	c #BEC3C4",
"@ 	c #BFC4C6",
"# 	c #B4B7B8",
"$ 	c #C7CDCF",
"% 	c #D2D9DC",
"& 	c #D4DCDE",
"* 	c #D3D9DC",
"= 	c #C1C5C7",
"- 	c #D1D8DA",
"; 	c #D4DBDD",
"> 	c #C3C8CA",
", 	c #D3DADD",
"' 	c #C3C9CA",
") 	c #BBBEC0",
"! 	c #C3C9CC",
"~ 	c #C9CFD2",
"{ 	c #D4DCDD",
"] 	c #CAD0D3",
"^ 	c #C5CBCE",
"/ 	c #BCBFC1",
"( 	c #CDD3D6",
"_ 	c #B3B7BB",
": 	c #BABFC3",
"< 	c #D3DADC",
"[ 	c #D0D7D9",
"} 	c #CCD2D5",
"| 	c #CCD2D4",
"1 	c #B8BDC1",
"2 	c #B3B8BC",
"3 	c #C4C9CA",
"4 	c #CFD6D8",
"5 	c #BDC2C6",
"6 	c #B1B5B9",
"7 	c #ACAFB4",
"8 	c #ACAFB3",
"9 	c #BEC2C6",
"0 	c #CAD1D3",
"a 	c #C4C9CB",
"b 	c #D2D8DA",
"c 	c #BFC5C8",
"d 	c #B4B8BC",
"e 	c #ABAEB2",
"f 	c #AAADB2",
"g 	c #ABADB2",
"h 	c #ABAEB3",
"i 	c #C0C5C9",
"j 	c #ADB2B2",
"k 	c #B9BEC2",
"l 	c #B0B3B8",
"m 	c #B6BABB",
"n 	c #C7CDD0",
"o 	c #C5CBCF",
"p 	c #D1D8DB",
"q 	c #B7BABB",
"r 	c #B7BABC",
"s 	c #D5DCDE",
"t 	c #D2D9DB",
"u 	c #B8BBBC",
"v 	c #C8CED1",
"w 	c #BCC1C5",
"x 	c #B5B9BD",
"y 	c #B2B6BA",
"z 	c #BDC2C5",
"A 	c #BEC3C7",
"B 	c #AFB3B7",
"C 	c #AFB3B8",
"D 	c #C6CBCE",
"E 	c #ADB0B5",
"F 	c #AAACB1",
"G 	c #B9BDC1",
"H 	c #C6CCCF",
"I 	c #BDC1C5",
"J 	c #BBBFC3",
"K 	c #C4CACD",
"L 	c #CFD5D8",
"M 	c #C8CED0",
"N 	c #C2C8CB",
"O 	c #BFC4C7",
"P 	c #BEC4C7",
"Q 	c #B1B4B9",
"R 	c #AEB1B5",
"S 	c #C8CDD0",
"T 	c #B3B6BB",
"U 	c #D0D6D9",
"V 	c #CED4D7",
"W 	c #CBD1D4",
"X 	c #CED5D7",
"Y 	c #C5CACE",
"Z 	c #BCC0C4",
"` 	c #CED5D8",
" .	c #BBC0C3",
"..	c #AFB2B6",
"+.	c #AEB0B5",
"@.	c #AFB2B7",
"#.	c #CDD4D6",
"$.	c #CAD0D2",
"%.	c #BCC1C4",
"&.	c #B0B4B8",
"*.	c #C7CCCF",
"=.	c #C2C8CC",
"-.	c #B3B7BC",
";.	c #C2C7CA",
">.	c #D2D8DB",
",.	c #B8BCC0",
"'.	c #B7BCC0",
").	c #B7BCBF",
"!.	c #CFD6D9",
"~.	c #B2B5B9",
"{.	c #BFC4C8",
"].	c #B6B9BA",
"^.	c #B6BABE",
"/.	c #C1C6CA",
"(.	c #B6B9BB",
"_.	c #A2AAA9",
":.	c #C1C7CA",
"<.	c #BBBFC1",
"[.	c #C7CCD0",
"}.	c #BFC4C5",
"|.	c #C0C4C6",
"1.	c #889B95",
"2.	c #B9BCBE",
"3.	c #BEC2C3",
"                                                                                                                                ",
"                                                                                                                                ",
"                                                                                                                                ",
"                                                                                                                                ",
"                                                                                                                                ",
"                                                                                                                                ",
"                                                                                                                                ",
"                                                                                                                                ",
"                                                                                                                                ",
"                                                                                                                                ",
"                                                                                                                                ",
"                    . + @ @ @ @ @ @ @ @ @ @ @ @ @ @ @ @ @ @ @ @ @ @ @ @ @ @ @ @ @ @ @ @ @ @ @ @ @ @ @ @ + .                     ",
"              # $ % & & & & & & & & & & & & & & & & & & & & & & & & & & & & & & & & & & & & & & & & & & & & * $ #               ",
"            = - ; ; ; ; ; ; ; ; ; ; ; ; ; ; ; ; ; ; ; ; ; ; ; ; ; ; ; ; ; ; ; ; ; ; ; ; ; ; ; ; ; ; ; ; ; ; ; ; - =             ",
"          > , ; ; ; ; ; ; ; ; ; ; ; ; ; ; ; ; ; ; ; ; ; ; ; ; ; ; ; ; ; ; ; ; ; ; ; ; ; ; ; ; ; ; ; ; ; ; ; ; ; ; , '           ",
"        ) ! ~ { ; ; ; ; ; ; ; ; ; ; ; ; ; ; ; ; ; ; ; ; ; ; ; ; ; ; ; ; ; ; ; ; ; ; ; ; ; ; ; ; ; ; ; ; ; ; ; ; ; ] ^ /         ",
"        ( _ : & ; ; ; ; ; , < [ } | | | | | | | | | | | | | | | | | | | | | | | | | | | | | | } [ < , ; ; ; ; ; & 1 2 (         ",
"      3 & 4 - ; ; ; , [ ] 5 6 7 8 8 8 8 8 8 8 8 8 8 8 8 8 8 8 8 8 8 8 8 8 8 8 8 8 8 8 8 8 8 8 8 7 6 9 0 [ , ; ; ; [ ( & a       ",
"      b ; ; ; ; ; | c d e f g e e e e e e e e e e e e e e e e e e e e e e e e e e e e e e e e e e g f h d i } ; ; ; ; ; b       ",
"    j , ; ; , } k l 8 h h h h h h h h h h h h h h h h h h h h h h h h h h h h h h h h h h h h h h h h h h 8 l : ( , ; ; , j     ",
"    m , ; ; - n o ^ ^ ^ ^ ^ ^ ^ ^ ^ ^ ^ ^ ^ ^ ^ ^ ^ ^ ^ ^ ^ ^ ^ ^ ^ ^ ^ ^ ^ ^ ^ ^ ^ ^ ^ ^ ^ ^ ^ ^ ^ ^ ^ ^ ^ ^ o n p ; ; , q     ",
"    r , ; ; ; & & & & & & & s { % t t t t t t t t t t t t t t t t t t t t t t t t t t t t t t % { s & & & & & & & ; ; ; , u     ",
"    r , ; ; ; ; ; ; ; , t v w x y y y y y y y y y y y y y y y y y y y y y y y y y y y y y y y y x z v t , ; ; ; ; ; ; ; , u     ",
"    r , ; ; ; ; ; p } A B h h e e e e e e e e e e e e e e e e e e e e e e e e e e e e e e e e e e h h C A } t ; ; ; ; ; , u     ",
"    r , ; ; ; - D 1 E F f f f f f f f f f f f f f f f f f f f f f f f f f f f f f f f f f f f f f f f f F E G H - ; ; ; , u     ",
"    r , ; ; - ! I J J J J J J J J J J J J J J J J J J J J J J J J J J J J J J J J J J J J J J J J J J J J J J z K p ; ; , u     ",
"    r , ; ; ; , , , , , , , , , < < < < < < < < < < < < < < < < < < < < < < < < < < < < < < < < , , , , , , , , , ; ; ; , u     ",
"    r , ; ; ; ; ; ; ; & ; L M N O P P P P P P P P P P P P P P P P P P P P P P P P P P P P P P O N v 4 ; & ; ; ; ; ; ; ; , u     ",
"    r , ; ; ; ; ; ; t n 1 Q R h g g g g g g g g g g g g g g g g g g g g g g g g g g g g g g g g h R 6 G S % ; ; ; ; ; ; , u     ",
"    r , ; ; ; < 4 ! y h e e e e e e e e e e e e e e e e e e e e e e e e e e e e e e e e e e e e e e e e h y K 4 , ; ; ; , u     ",
"    r , ; ; % H G y y T T T T T T T T T T T T T T T T T T T T T T T T T T T T T T T T T T T T T T T T T T y y k n % ; ; , u     ",
"    r , ; ; , [ U U U U U U U U U U U U U U U U U U U U U U U U U U U U U U U U U U U U U U U U U U U U U U U U [ , ; ; , u     ",
"    r , ; ; ; ; ; ; ; ; ; % [ V | W W W W W W W W W W W W W W W W W W W W W W W W W W W W W W | V [ % ; ; ; ; ; ; ; ; ; , u     ",
"    r , ; ; ; ; ; ; ; X Y Z _ E g g g g g g g g g g g g g g g g g g g g g g g g g g g g g g g g E _ Z ^ ` ; ; ; ; ; ; ; , u     ",
"    r , ; ; ; ; , } J Q 7 g e e e e e e e e e e e e e e e e e e e e e e e e e e e e e e e e e e e e g 7 6  .( , ; ; ; ; , u     ",
"    r , ; ; , ( Z ..R +.+.+.+.+.+.+.+.+.+.+.+.+.+.+.+.+.+.+.+.+.+.+.+.+.+.+.+.+.+.+.+.+.+.+.+.+.+.+.+.+.+.R @.w #., ; ; , u     ",
"    r , ; ; % ~ n n n n n n n n n n n n n n n n n n n n n n n n n n n n n n n n n n n n n n n n n n n n n n n n $.% ; ; , u     ",
"    r , ; ; ; ; ; ; ; ; ; ; ; , , < < < < < < < < < < < < < < < < < < < < < < < < < < < < < < , , ; ; ; ; ; ; ; ; ; ; ; , u     ",
"    r , ; ; ; ; ; ; ; % L n %._ R E E E E E E E E E E E E E E E E E E E E E E E E E E E E E E R _ %.n L % ; ; ; ; ; ; ; , u     ",
"    r , ; ; ; ; & - H J l f f g e e e e e e e e e e e e e e e e e e e e e e e e e e e e e e e e g f f &. .*.- & ; ; ; ; , u     ",
"    r , ; ; ; - =._ E e e h h h h h h h h h h h h h h h h h h h h h h h h h h h h h h h h h h h h h h e h E -.! - ; ; ; , u     ",
"    r , ; ; - ;.%.Z Z Z Z Z Z Z Z Z Z Z Z Z Z Z Z Z Z Z Z Z Z Z Z Z Z Z Z Z Z Z Z Z Z Z Z Z Z Z Z Z Z Z Z Z Z %.N >.; ; , u     ",
"    r , ; ; ; & & & & & & & s s s s s s s s s s s s s s s s s s s s s s s s s s s s s s s s s s s s & & & & & & & ; ; ; , u     ",
"    r , ; ; ; ; ; ; ; ; , 4 ^ z ,.'.'.'.'.'.'.'.'.'.'.'.'.'.'.'.'.'.'.'.'.'.'.'.'.'.'.'.'.'.'.,.z ^ 4 , ; ; ; ; ; ; ; ; , u     ",
"    r , ; ; ; ; ; < 4 H ).7 h h e e e e e e e e e e e e e e e e e e e e e e e e e e e e e e e e h h 7 ,.*.!., ; ; ; ; ; , u     ",
"    r , ; ; ; , W P ~.g f g g g g g g g g g g g g g g g g g g g g g g g g g g g g g g g g g g g g g g f g y {.| , ; ; ; , r     ",
"    ]., ; ; - i ^.6 6 6 6 6 6 6 6 6 6 6 6 6 6 6 6 6 6 6 6 6 6 6 6 6 6 6 6 6 6 6 6 6 6 6 6 6 6 6 6 6 6 6 6 6 6 ^./.- ; ; , (.    ",
"    _., ; ; ; , , , , , , , , , , , , , , , , , , , , , , , , , , , , , , , , , , , , , , , , , , , , , , , , , , ; ; ; , j     ",
"      < % ~ [ ; ; ; ; ; ; ; ; ; ; ; ; ; ; ; ; ; ; ; ; ; ; ; ; ; ; ; ; ; ; ; ; ; ; ; ; ; ; ; ; ; ; ; ; ; ; ; ; ; ; [ ~ % <       ",
"      V | y :.& ; ; ; ; ; ; ; ; ; ; ; ; ; ; ; ; ; ; ; ; ; ; ; ; ; ; ; ; ; ; ; ; ; ; ; ; ; ; ; ; ; ; ; ; ; ; ; ; & :.y | V       ",
"      <.t [.!.; ; ; ; ; ; ; ; ; ; ; ; ; ; ; ; ; ; ; ; ; ; ; ; ; ; ; ; ; ; ; ; ; ; ; ; ; ; ; ; ; ; ; ; ; ; ; ; ; ; !.[.% <.      ",
"        }.4 & & & & & & & & & & & & & & & & & & & & & & & & & & & & & & & & & & & & & & & & & & & & & & & & & & & & 4 |.        ",
"            1.2.3.@ @ @ @ @ @ @ @ @ @ @ @ @ @ @ @ @ @ @ @ @ @ @ @ @ @ @ @ @ @ @ @ @ @ @ @ @ @ @ @ @ @ @ @ @ @ 3.2.1.            ",
"                                                                                                                                ",
"                                                                                                                                ",
"                                                                                                                                ",
"                                                                                                                                ",
"                                                                                                                                ",
"                                                                                                                                ",
"                                                                                                                                ",
"                                                                                                                                ",
"                                                                                                                                ",
"                                                                                                                                ",
"                                                                                                                                "};
